<?xml version="1.0" encoding="UTF-8" standalone="no"?>
<svg width="21px" height="16px" viewBox="0 0 21 16" version="1.1" xmlns="http://www.w3.org/2000/svg" xmlns:xlink="http://www.w3.org/1999/xlink" xmlns:sketch="http://www.bohemiancoding.com/sketch/ns">
    <!-- Generator: Sketch 3.2.1 (9971) - http://www.bohemiancoding.com/sketch -->
    <title>Fill 15</title>
    <desc>Created with Sketch.</desc>
    <defs></defs>
    <g id="Page-1" stroke="none" stroke-width="1" fill="none" fill-rule="evenodd" sketch:type="MSPage">
        <path d="M16.40625,14.6666667 L5.25,14.6666667 C5.25,14.6666667 1.2875625,14.2533333 1.3125,10.6666667 C1.32628125,8.64 3.0765,6.78666667 5.25,6.66666667 C5.25,3.90666667 6.9890625,1.33333333 9.84375,1.33333333 C12.0966562,1.33333333 13.5994688,2.73333333 14.1343125,4.67333333 C17.3860312,4.53333333 19.585125,7.14666667 19.6875,9.33333333 C19.7760937,11.22 18.165,13.6533333 16.40625,14.6666667 L16.40625,14.6666667 Z M15.1377188,3.35333333 C14.1743437,1.36666667 12.1688438,0 9.84375,0 C6.72721875,0 4.1803125,2.45333333 3.95915625,5.56 C1.6681875,6.22666667 0,8.26 0,10.6666667 C0,13.5066667 2.323125,15.82 5.25,15.9866667 L16.40625,16 C18.6617813,15.0066667 21,12.2333333 21,9.66666667 C21,6.29333333 18.4071563,3.54666667 15.1377188,3.35333333 L15.1377188,3.35333333 Z" id="Fill-15" fill="#4D90C4" sketch:type="MSShapeGroup"></path>
    </g>
</svg>