<?xml version="1.0" encoding="UTF-8" standalone="no"?>
<svg width="35px" height="27px" viewBox="0 0 35 27" version="1.1" xmlns="http://www.w3.org/2000/svg" xmlns:xlink="http://www.w3.org/1999/xlink" xmlns:sketch="http://www.bohemiancoding.com/sketch/ns">
    <!-- Generator: Sketch 3.2.1 (9971) - http://www.bohemiancoding.com/sketch -->
    <title>Fill 15</title>
    <desc>Created with Sketch.</desc>
    <defs></defs>
    <g id="Page-1" stroke="none" stroke-width="1" fill="none" fill-rule="evenodd" sketch:type="MSPage">
        <g id="Icon-Set" sketch:type="MSLayerGroup" transform="translate(-452.000000, -1130.000000)" fill="#4D90C4">
            <path d="M479.34375,1154.75 L460.75,1154.75 C460.75,1154.75 454.145938,1154.0525 454.1875,1148 C454.210469,1144.58 457.1275,1141.4525 460.75,1141.25 C460.75,1136.5925 463.648438,1132.25 468.40625,1132.25 C472.161094,1132.25 474.665781,1134.6125 475.557187,1137.88625 C480.976719,1137.65 484.641875,1142.06 484.8125,1145.75 C484.960156,1148.93375 482.275,1153.04 479.34375,1154.75 L479.34375,1154.75 Z M477.229531,1135.65875 C475.623906,1132.30625 472.281406,1130 468.40625,1130 C463.212031,1130 458.967188,1134.14 458.598594,1139.3825 C454.780313,1140.5075 452,1143.93875 452,1148 C452,1152.7925 455.871875,1156.69625 460.75,1156.9775 L479.34375,1157 C483.102969,1155.32375 487,1150.64375 487,1146.3125 C487,1140.62 482.678594,1135.985 477.229531,1135.65875 L477.229531,1135.65875 Z" id="Fill-15" sketch:type="MSShapeGroup"></path>
        </g>
    </g>
</svg>