<?xml version="1.0" encoding="UTF-8" standalone="no"?>
<svg width="28px" height="32px" viewBox="0 0 28 32" version="1.1" xmlns="http://www.w3.org/2000/svg" xmlns:xlink="http://www.w3.org/1999/xlink" xmlns:sketch="http://www.bohemiancoding.com/sketch/ns">
    <g id="Page-1" stroke="none" stroke-width="1" fill="none" fill-rule="evenodd" sketch:type="MSPage">
        <path d="M23,8 C21.935,8 21,6.065 21,5.026 L21,2.031 L21,2.029 L26,8 L23,8 L23,8 Z M26,24 C26,25.019 25.05,26 24,26 L9,26 C7.95,26 7,25.019 7,24 L7,4 C7,2.981 7.95,2 9,2 L19,2 C18.984,4.304 19,6.025 19,6.025 C19,8.103 20.87,10 23,10 L26,10 L26,24 L26,24 Z M19,30 L4,30 C2.95,30 2,29.019 2,28 L2,8 C2,6.981 2.855,6.032 3.905,6.032 L5,6 L5,24 C5,26.059 6.884,28 9,28 L21,28 C21,29.019 20.049,30 19,30 L19,30 Z M21,0 L9,0 C6.884,0 5,1.941 5,4 L3.845,4.027 C1.729,4.027 0,5.941 0,8 L0,28 C0,30.059 1.884,32 4,32 L19,32 C21.116,32 23,30.059 23,28 L24,28 C26.116,28 28,26.059 28,24 L28,8.023 L21,0 L21,0 Z" id="Fill-220" fill="#868687" sketch:type="MSShapeGroup"></path>
    </g>
</svg>
