<?xml version="1.0" encoding="UTF-8" standalone="no"?>
<svg width="18px" height="18px" viewBox="0 0 18 18" version="1.1" xmlns="http://www.w3.org/2000/svg" xmlns:xlink="http://www.w3.org/1999/xlink" xmlns:sketch="http://www.bohemiancoding.com/sketch/ns">
    <!-- Generator: Sketch 3.2.1 (9971) - http://www.bohemiancoding.com/sketch -->
    <title>Fill 26</title>
    <desc>Created with Sketch.</desc>
    <defs></defs>
    <g id="Welcome" stroke="none" stroke-width="1" fill="none" fill-rule="evenodd" sketch:type="MSPage">
        <g id="Desktop" sketch:type="MSArtboardGroup" transform="translate(-1077.000000, -280.000000)" fill="#4990E2">
            <path d="M1086,296.875 C1081.65075,296.875 1078.125,293.348125 1078.125,289 C1078.125,284.651875 1081.65075,281.125 1086,281.125 C1090.34925,281.125 1093.875,284.651875 1093.875,289 C1093.875,293.348125 1090.34925,296.875 1086,296.875 L1086,296.875 Z M1086,280 C1081.02919,280 1077,284.0275 1077,289 C1077,293.9725 1081.02919,298 1086,298 C1090.97081,298 1095,293.9725 1095,289 C1095,284.0275 1090.97081,280 1086,280 L1086,280 Z M1088.88056,288.69625 L1086.5625,291.019375 L1086.5625,285.0625 C1086.5625,284.753125 1086.31106,284.5 1086,284.5 C1085.6895,284.5 1085.4375,284.753125 1085.4375,285.0625 L1085.4375,291.019375 L1083.11944,288.69625 C1082.8995,288.476875 1082.54344,288.476875 1082.32406,288.69625 C1082.10413,288.92125 1082.10413,289.275625 1082.32406,289.495 L1085.50556,292.67875 C1085.64056,292.81375 1085.82506,292.853125 1086,292.819375 C1086.17494,292.853125 1086.35944,292.81375 1086.49444,292.67875 L1089.67594,289.495 C1089.89587,289.275625 1089.89587,288.92125 1089.67594,288.69625 C1089.45712,288.476875 1089.1005,288.476875 1088.88056,288.69625 L1088.88056,288.69625 Z" id="Fill-26" sketch:type="MSShapeGroup"></path>
        </g>
    </g>
</svg>