<?xml version="1.0" encoding="UTF-8" standalone="no"?>
<svg width="19px" height="14px" viewBox="0 0 19 14" version="1.1" xmlns="http://www.w3.org/2000/svg" xmlns:xlink="http://www.w3.org/1999/xlink" xmlns:sketch="http://www.bohemiancoding.com/sketch/ns">
    <!-- Generator: Sketch 3.2.1 (9971) - http://www.bohemiancoding.com/sketch -->
    <title>Fill 186</title>
    <desc>Created with Sketch.</desc>
    <defs></defs>
    <g id="Welcome" stroke="none" stroke-width="1" fill="none" fill-rule="evenodd" sketch:type="MSPage">
        <g id="Desktop" sketch:type="MSArtboardGroup" transform="translate(-968.000000, -282.000000)" fill="#4990E2">
            <path d="M985.8125,293.666667 C985.8125,293.785083 985.789344,293.897083 985.756094,294.003833 L980.46875,288.416667 L985.8125,284.333333 L985.8125,293.666667 L985.8125,293.666667 Z M970.111375,294.801833 L975.469375,289.1925 L977.5,290.700417 L979.44275,289.183167 L984.888625,294.801833 C984.803719,294.821083 970.196281,294.821083 970.111375,294.801833 L970.111375,294.801833 Z M969.1875,293.666667 L969.1875,284.333333 L974.53125,288.416667 L969.243906,294.003833 C969.210656,293.897083 969.1875,293.785083 969.1875,293.666667 L969.1875,293.666667 Z M985.21875,283.166667 L977.5,289 L969.78125,283.166667 L985.21875,283.166667 L985.21875,283.166667 Z M984.625,282 L970.375,282 C969.063406,282 968,283.04475 968,284.333333 L968,293.666667 C968,294.95525 969.063406,296 970.375,296 L984.625,296 C985.936594,296 987,294.95525 987,293.666667 L987,284.333333 C987,283.04475 985.936594,282 984.625,282 L984.625,282 Z" id="Fill-186" sketch:type="MSShapeGroup"></path>
        </g>
    </g>
</svg>