<?xml version="1.0" encoding="UTF-8" standalone="no"?>
<svg width="20px" height="20px" viewBox="0 0 20 20" version="1.1" xmlns="http://www.w3.org/2000/svg" xmlns:xlink="http://www.w3.org/1999/xlink" xmlns:sketch="http://www.bohemiancoding.com/sketch/ns">
    <!-- Generator: Sketch 3.2.1 (9971) - http://www.bohemiancoding.com/sketch -->
    <title>Fill 25</title>
    <desc>Created with Sketch.</desc>
    <defs></defs>
    <g id="Page-1" stroke="none" stroke-width="1" fill="none" fill-rule="evenodd" sketch:type="MSPage">
        <path d="M10,18.75 C5.1675,18.75 1.25,14.83125 1.25,10 C1.25,5.16875 5.1675,1.25 10,1.25 C14.8325,1.25 18.75,5.16875 18.75,10 C18.75,14.83125 14.8325,18.75 10,18.75 L10,18.75 Z M10,0 C4.476875,0 0,4.475 0,10 C0,15.525 4.476875,20 10,20 C15.523125,20 20,15.525 20,10 C20,4.475 15.523125,0 10,0 L10,0 Z M13.75,9.375 L10.625,9.375 L10.625,6.25 C10.625,5.90625 10.345625,5.625 10,5.625 C9.654375,5.625 9.375,5.90625 9.375,6.25 L9.375,9.375 L6.25,9.375 C5.904375,9.375 5.625,9.65625 5.625,10 C5.625,10.34375 5.904375,10.625 6.25,10.625 L9.375,10.625 L9.375,13.75 C9.375,14.09375 9.654375,14.375 10,14.375 C10.345625,14.375 10.625,14.09375 10.625,13.75 L10.625,10.625 L13.75,10.625 C14.095625,10.625 14.375,10.34375 14.375,10 C14.375,9.65625 14.095625,9.375 13.75,9.375 L13.75,9.375 Z" id="Fill-25" fill="#4EC088" sketch:type="MSShapeGroup"></path>
    </g>
</svg>