<?xml version="1.0" encoding="UTF-8" standalone="no"?>
<svg width="31px" height="31px" viewBox="0 0 31 31" version="1.1" xmlns="http://www.w3.org/2000/svg" xmlns:xlink="http://www.w3.org/1999/xlink" xmlns:sketch="http://www.bohemiancoding.com/sketch/ns">
    <!-- Generator: Sketch 3.2.1 (9971) - http://www.bohemiancoding.com/sketch -->
    <title>Fill 101</title>
    <desc>Created with Sketch.</desc>
    <defs></defs>
    <g id="Page-1" stroke="none" stroke-width="1" fill="none" fill-rule="evenodd" sketch:type="MSPage">
        <path d="M18.703,12.283 C18.308,11.889 17.668,11.889 17.273,12.283 L12.268,17.288 C11.873,17.684 11.873,18.323 12.268,18.719 C12.663,19.113 13.303,19.113 13.698,18.719 L18.703,13.714 C19.098,13.318 19.098,12.679 18.703,12.283 L18.703,12.283 Z M29.786,2.614 L28.356,1.185 C26.776,-0.395 24.215,-0.395 22.636,1.185 L15.485,8.335 C14.429,9.391 14.096,10.882 14.452,12.229 L24.065,2.614 C24.855,1.825 26.136,1.825 26.926,2.614 L28.356,4.045 C29.146,4.835 29.146,6.115 28.356,6.905 L18.742,16.519 C20.089,16.874 21.58,16.541 22.636,15.485 L29.786,8.335 C31.366,6.756 31.366,4.194 29.786,2.614 L29.786,2.614 Z M6.905,28.355 C6.115,29.146 4.834,29.146 4.044,28.355 L2.615,26.926 C1.825,26.136 1.825,24.855 2.615,24.065 L12.229,14.452 C10.882,14.096 9.391,14.43 8.335,15.485 L1.185,22.636 C-0.395,24.215 -0.395,26.776 1.185,28.355 L2.615,29.786 C4.194,31.366 6.755,31.366 8.335,29.786 L15.485,22.636 C16.541,21.58 16.875,20.089 16.519,18.742 L6.905,28.355 L6.905,28.355 Z" id="Fill-101" fill="#868687" sketch:type="MSShapeGroup"></path>
    </g>
</svg>
