<?xml version="1.0" encoding="UTF-8" standalone="no"?>
<svg width="199px" height="138px" viewBox="0 0 199 138" version="1.1" xmlns="http://www.w3.org/2000/svg" xmlns:xlink="http://www.w3.org/1999/xlink" xmlns:sketch="http://www.bohemiancoding.com/sketch/ns">
    <!-- Generator: Sketch 3.2.1 (9971) - http://www.bohemiancoding.com/sketch -->
    <title>LARGE CAMERA</title>
    <desc>Created with Sketch.</desc>
    <defs></defs>
    <g id="Page-1" stroke="none" stroke-width="1" fill="none" fill-rule="evenodd" sketch:type="MSPage">
        <g id="Desktop-HD-5" sketch:type="MSArtboardGroup" transform="translate(-311.000000, -55.000000)">
            <g id="LARGE-CAMERA" sketch:type="MSLayerGroup" transform="translate(311.000000, 54.000000)">
                <path d="M4.57661621,35.3307634 C2.38544277,35.5691292 0.609145742,37.5629012 0.609145742,39.7642288 L0.609145742,134.247381 C0.609145742,136.457551 2.39702979,138.119584 4.59694416,137.96004 L162.086031,126.538454 C164.288431,126.378729 166.073829,124.456768 166.073829,122.243262 L166.073829,21.7683478 C166.073829,19.5559034 164.299862,17.955343 162.106359,18.1939623 L4.57661621,35.3307634 Z" id="Rectangle-18" stroke="#AFC1D3" fill-opacity="0.658825861" fill="#DDF8FF" sketch:type="MSShapeGroup"></path>
                <path d="M134.505881,10.1273377 C120.889735,10.1273377 91.185539,11.3477698 91.185539,11.3477698 C88.9800836,11.435108 87.1922087,13.2908514 87.1922087,15.5016486 L87.1922087,106.699511 C87.1922087,108.906297 88.9777085,110.69525 91.1933313,110.69525 L173.593433,110.69525 C175.803192,110.69525 177.594556,108.910308 177.594556,106.699511 L177.594556,15.5016486 C177.594556,13.2948629 175.80893,11.4278416 173.598227,11.3334046 C173.598227,11.3334046 146.713695,10.1273377 134.505881,10.1273377 Z" id="Rectangle-19" stroke="#AFC1D3" fill="#FFFFFF" sketch:type="MSShapeGroup" transform="translate(132.393382, 60.411294) rotate(-15.000000) translate(-132.393382, -60.411294) "></path>
                <path d="M134.991509,19.9293676 C124.419083,19.9293676 102.250158,20.8424093 102.250158,20.8424093 C100.043263,20.9293209 98.2542217,22.7901672 98.2542217,25.0051864 L98.2542217,94.0111582 C98.2542217,96.2232849 100.042147,98.0165679 102.254739,98.0165679 L164.447726,98.0165679 C166.657151,98.0165679 168.448243,96.2261773 168.448243,94.0111582 L168.448243,25.0051864 C168.448243,22.7930597 166.661892,20.9219333 164.454824,20.8283906 C164.454824,20.8283906 144.470416,19.9293676 134.991509,19.9293676 Z" id="Rectangle-20" stroke="#AFC1D3" opacity="0.55" fill="#ECF1F7" sketch:type="MSShapeGroup" transform="translate(133.351232, 58.972968) rotate(-15.000000) translate(-133.351232, -58.972968) "></path>
                <g id="Rectangle-20-+-Rectangle-21" transform="translate(86.000000, 0.000000)" stroke="#AFC1D3" sketch:type="MSShapeGroup">
                    <path d="M58.5058814,10.1273377 C44.8897352,10.1273377 15.185539,11.3477698 15.185539,11.3477698 C12.9800836,11.435108 11.1922087,13.2908514 11.1922087,15.5016486 L11.1922087,106.699511 C11.1922087,108.906297 12.9777085,110.69525 15.1933313,110.69525 L97.5934333,110.69525 C99.8031923,110.69525 101.594556,108.910308 101.594556,106.699511 L101.594556,15.5016486 C101.594556,13.2948629 99.8089297,11.4278416 97.5982274,11.3334046 C97.5982274,11.3334046 70.7136948,10.1273377 58.5058814,10.1273377 Z" id="Rectangle-20" fill="#FFFFFF" transform="translate(56.393382, 60.411294) rotate(-345.000000) translate(-56.393382, -60.411294) "></path>
                    <path d="M57.9091999,20.3199119 C46.9790153,20.3199119 23.9217428,21.2691645 23.9217428,21.2691645 C21.7164811,21.356082 19.9287634,23.2201531 19.9287634,25.4296239 L19.9287634,97.0464164 C19.9287634,99.2572573 21.7226215,101.049498 23.9337737,101.049498 L88.4930638,101.049498 C90.7049699,101.049498 92.4980741,99.2558873 92.4980741,97.0464164 L92.4980741,25.4296239 C92.4980741,23.2187831 90.7131969,21.3487264 88.5006263,21.2548457 C88.5006263,21.2548457 67.7088637,20.3199119 57.9091999,20.3199119 Z" id="Rectangle-21" opacity="0.549965019" fill="#ECF1F7" transform="translate(56.213419, 60.684705) rotate(-345.000000) translate(-56.213419, -60.684705) "></path>
                </g>
                <path d="M84.0678177,34.3379605 C60.0496975,34.3379605 4.60082821,35.6689038 4.60082821,35.6689038 C2.39628286,35.7205198 0.609145742,37.5629012 0.609145742,39.7642288 L0.609145742,134.247381 C0.609145742,136.457551 2.40000889,138.249247 4.61073793,138.249247 L156.072237,138.249247 C158.282255,138.249247 160.073829,136.448709 160.073829,134.247381 L160.073829,39.7642288 C160.073829,37.5540593 158.280748,35.7161827 156.083943,35.6604949 C156.083943,35.6604949 105.601718,34.3379605 84.0678177,34.3379605 Z" id="Rectangle-19" stroke="#AFC1D3" fill="#DDF8FF" sketch:type="MSShapeGroup"></path>
                <path d="M82.7818122,37.2366752 C58.763692,37.2366752 3.3148227,37.6332313 3.3148227,37.6332313 C1.11027735,37.6486103 1.11526866,37.7598688 3.32276983,37.8815575 L145.580194,45.7235113 C147.789128,45.845279 149.753517,47.7209953 149.969598,49.931648 L158.398049,136.160305 C158.613316,138.362627 158.787824,138.347423 158.787824,136.146096 L158.787824,41.6629435 C158.787824,39.452774 156.994743,37.6473181 154.797937,37.6307259 C154.797937,37.6307259 104.315712,37.2366752 82.7818122,37.2366752 Z" id="Rectangle-19" opacity="0.626340951" sketch:type="MSShapeGroup" transform="translate(80.226050, 87.520631) scale(1, -1) translate(-80.226050, -87.520631) "></path>
                <g id="camera" transform="translate(9.556972, 43.363745)" sketch:type="MSShapeGroup">
                    <ellipse id="Oval-381" stroke="#AFC1D3" fill="#FFFFFF" cx="69.2715062" cy="42.7819128" rx="36.7312601" ry="37.0110711"></ellipse>
                    <ellipse id="Oval-382" stroke="#AFC1D3" opacity="0.559060168" fill="#FFFFFF" cx="69.2715062" cy="42.7819128" rx="31.9402261" ry="32.1835401"></ellipse>
                    <ellipse id="Oval-386" stroke="#AFC1D3" fill="#FFFFFF" cx="6.07320586" cy="6.18700814" rx="6.38804523" ry="6.43670802"></ellipse>
                    <ellipse id="Oval-387" stroke="#AFC1D3" fill="#FFFFFF" cx="21.2448133" cy="8.60077364" rx="3.99252827" ry="4.02294251"></ellipse>
                    <ellipse id="Oval-383" stroke="#AFC1D3" fill="#FFE7E7" cx="69.2715062" cy="42.7819128" rx="23.9551696" ry="24.1376551"></ellipse>
                    <ellipse id="Oval-384" stroke="#AFC1D3" fill="#E0FAFF" cx="69.2715062" cy="42.7819128" rx="15.9701131" ry="16.09177"></ellipse>
                    <path d="M74.2334373,38.9543818 C82.4476248,38.9543818 84.6446088,50.669152 84.6446088,41.7819128 C84.6446088,32.8946736 77.9856941,27.6901427 69.7715066,27.6901427 C61.5573191,27.6901427 53.8984044,32.8946736 53.8984044,41.7819128 C53.8984044,50.669152 66.0192497,38.9543818 74.2334373,38.9543818 Z" id="Oval-385" opacity="0.738397854" fill="#FFFFFF"></path>
                    <rect id="Rectangle-1603" stroke="#AFC1D3" fill="#FFFFFF" x="119.903609" y="-0.24969988" width="22.3581583" height="12.873416" rx="5"></rect>
                </g>
            </g>
        </g>
    </g>
</svg>