<?xml version="1.0" encoding="UTF-8" standalone="no"?>
<svg width="30px" height="30px" viewBox="0 0 30 30" version="1.1" xmlns="http://www.w3.org/2000/svg" xmlns:xlink="http://www.w3.org/1999/xlink" xmlns:sketch="http://www.bohemiancoding.com/sketch/ns">
    <!-- Generator: Sketch 3.2.1 (9971) - http://www.bohemiancoding.com/sketch -->
    <title>Fill 66</title>
    <desc>Created with Sketch.</desc>
    <defs></defs>
    <g id="Page-1" stroke="none" stroke-width="1" fill="none" fill-rule="evenodd" sketch:type="MSPage">
        <path d="M26.94,13.6193053 L22.957,20.3583053 L22.557,26.8703053 L3.583,16.1713053 L9.157,12.5773053 L13.141,5.83730526 C15.341,2.11630526 20.214,0.840305264 24.023,2.99030526 C27.834,5.13830526 29.14,9.89730526 26.94,13.6193053 L26.94,13.6193053 Z M10.58,25.7333053 C9.151,24.9273053 8.661,23.1433053 9.486,21.7473053 L14.661,24.6653053 C13.836,26.0613053 12.009,26.5383053 10.58,25.7333053 L10.58,25.7333053 Z M25.02,1.30430526 C20.257,-1.38069474 14.166,0.212305264 11.416,4.86530526 L7.433,11.6043053 L0,16.3983053 L7.762,20.7753053 C6.387,23.1013053 7.202,26.0753053 9.584,27.4173053 C11.966,28.7613053 15.011,27.9643053 16.386,25.6383053 L24.147,30.0153053 L24.682,21.3303053 L28.665,14.5913053 C31.415,9.93930526 29.783,3.99130526 25.02,1.30430526 L25.02,1.30430526 Z" id="Fill-66" fill="#EF5E5E" sketch:type="MSShapeGroup" transform="translate(15.000432, 15.007653) scale(-1, 1) translate(-15.000432, -15.007653) "></path>
    </g>
</svg>