<?xml version="1.0" encoding="UTF-8" standalone="no"?>
<svg width="22px" height="23px" viewBox="0 0 22 23" version="1.1" xmlns="http://www.w3.org/2000/svg" xmlns:xlink="http://www.w3.org/1999/xlink" xmlns:sketch="http://www.bohemiancoding.com/sketch/ns">
    <!-- Generator: Sketch 3.2.1 (9971) - http://www.bohemiancoding.com/sketch -->
    <title>Fill 66 + +</title>
    <desc>Created with Sketch.</desc>
    <defs></defs>
    <g id="Welcome" stroke="none" stroke-width="1" fill="none" fill-rule="evenodd" sketch:type="MSPage">
        <g id="Desktop" sketch:type="MSArtboardGroup" transform="translate(-291.000000, -94.000000)" fill="#4A4A4A">
            <g id="devoirs" sketch:type="MSLayerGroup" transform="translate(-2426.000000, -186.000000)">
                <g id="Fill-66-+-+" transform="translate(2717.000000, 275.000000)">
                    <path d="M17.9594826,17.0792753 L15.3042257,21.5718125 L15.0375668,25.9130207 L2.38859785,18.7805596 L6.10449079,16.3846286 L8.76041427,11.8914247 C10.2270387,9.41082953 13.4756118,8.56018737 16.0148719,9.99347941 C18.5554654,11.4254382 19.426107,14.5980134 17.9594826,17.0792753 L17.9594826,17.0792753 Z M7.05313012,25.1550426 C6.1004909,24.6177247 5.77383365,23.4284257 6.3238178,22.4977858 L9.77371841,24.4430631 C9.22373425,25.373703 8.00576934,25.6916938 7.05313012,25.1550426 L7.05313012,25.1550426 Z M16.6795194,8.86951179 C13.5042776,7.07956336 9.44372792,8.14153277 7.6104474,11.2434434 L4.95519057,15.7359806 L0,18.9318885 L5.17451758,21.8498045 C4.25787733,23.4004265 4.80119501,25.383036 6.38914925,26.2776769 C7.9771035,27.1736511 10.007045,26.6423331 10.9236853,25.0917111 L16.0975362,28.009627 L16.4541926,22.2197938 L19.1094494,17.7272566 C20.94273,14.6260126 19.8547613,10.6607935 16.6795194,8.86951179 L16.6795194,8.86951179 Z" id="Fill-66" sketch:type="MSShapeGroup" transform="translate(10.000000, 18.004814) scale(-1, 1) translate(-10.000000, -18.004814) "></path>
                    <text id="+" sketch:type="MSTextLayer" font-family="Source Sans Pro" font-size="14" font-weight="normal">
                        <tspan x="15" y="14">+</tspan>
                    </text>
                </g>
            </g>
        </g>
    </g>
</svg>